<?xml version="1.0" encoding="utf-8"?>
<!-- Generator: Adobe Illustrator 16.0.0, SVG Export Plug-In . SVG Version: 6.00 Build 0)  -->
<!DOCTYPE svg PUBLIC "-//W3C//DTD SVG 1.1//EN" "http://www.w3.org/Graphics/SVG/1.1/DTD/svg11.dtd">
<svg version="1.1" id="Layer_1" xmlns="http://www.w3.org/2000/svg" xmlns:xlink="http://www.w3.org/1999/xlink" x="0px" y="0px"
	 width="180px" height="138px" viewBox="0 0 180 138" enable-background="new 0 0 180 138" xml:space="preserve">
<g>
	<path fill="#B2B1B1" d="M128.013,106.301c-2.918,0-5.295-1.762-5.295-3.914v-3.916h5.295c8.432,0,10.576-2.12,10.576-2.12v6.036
		c0,2.152-2.378,3.914-5.276,3.914H128.013z M128.013,106.301"/>
	<path fill="#B2B1B1" d="M38.006,106.301c-2.922,0-5.304-1.762-5.304-3.914v-6.036c0,0,2.18,2.12,10.602,2.12h5.3v3.916
		c0,2.152-2.381,3.914-5.3,3.914H38.006z M38.006,106.301"/>
	<path fill="#B2B1B1" d="M153.504,65.219c0-4.983-5.505-9.032-12.252-9.032c-5.252,0-9.696,2.445-11.453,5.883l-5.791,9.606
		c-0.439-0.191-17.992-4.278-38.022-4.278c-20.011,0-38.287,4.106-38.721,4.316l-5.508-9.033c-1.475-3.746-6.13-6.494-11.688-6.494
		c-6.771,0-12.256,4.049-12.256,9.051c0,4.146,3.832,7.623,9,8.672l2.277,14.4c2.375,6.092,14.214,6.24,14.214,6.24h84.709
		c0,0,11.817-0.148,14.218-6.26l2.277-14.381C149.651,72.86,153.504,69.384,153.504,65.219L153.504,65.219z M153.504,65.219"/>
	<path fill="#B2B1B1" d="M30.068,51.489c8.014,0,15.2,3.896,17.656,9.528l2.659,4.411c5.198-1.394,23.84-2.709,35.602-2.709
		c11.446,0,29.829,1.222,34.918,2.597l3.028-5.042c2.764-5.271,9.69-8.785,17.32-8.785c0.568,0,1.084,0.074,1.653,0.112
		c0-0.02,0-0.038,0-0.074c0-10.389-11.403-18.811-25.486-18.811H53.907c-14.089,0-25.493,8.422-25.493,18.811
		c0,0.036,0,0.055,0,0.074C28.982,51.582,29.5,51.489,30.068,51.489L30.068,51.489z M30.068,51.489"/>
</g>
<g>
	<path fill="#AC1F23" d="M328.443,105.792c-2.918,0-5.295-1.762-5.295-3.914v-3.916h5.295c8.432,0,10.576-2.12,10.576-2.12v6.036
		c0,2.152-2.378,3.914-5.276,3.914H328.443z M328.443,105.792"/>
	<path fill="#AC1F23" d="M238.437,105.792c-2.922,0-5.305-1.762-5.305-3.914v-6.036c0,0,2.18,2.12,10.602,2.12h5.301v3.916
		c0,2.152-2.381,3.914-5.301,3.914H238.437z M238.437,105.792"/>
	<path fill="#AC1F23" d="M353.935,64.71c0-4.983-5.505-9.032-12.252-9.032c-5.252,0-9.696,2.445-11.453,5.883l-5.791,9.606
		c-0.439-0.191-17.992-4.278-38.022-4.278c-20.011,0-38.287,4.106-38.722,4.316l-5.508-9.033c-1.475-3.746-6.129-6.494-11.688-6.494
		c-6.771,0-12.256,4.049-12.256,9.051c0,4.146,3.832,7.623,9,8.672l2.277,14.4c2.375,6.092,14.213,6.24,14.213,6.24h84.71
		c0,0,11.817-0.148,14.218-6.26l2.277-14.381C350.082,72.352,353.935,68.875,353.935,64.71L353.935,64.71z M353.935,64.71"/>
	<path fill="#AC1F23" d="M230.499,50.98c8.014,0,15.199,3.896,17.656,9.528l2.658,4.411c5.199-1.394,23.84-2.709,35.603-2.709
		c11.446,0,29.829,1.222,34.918,2.597l3.028-5.042c2.764-5.271,9.69-8.785,17.32-8.785c0.568,0,1.084,0.074,1.653,0.112
		c0-0.02,0-0.038,0-0.074c0-10.389-11.403-18.811-25.486-18.811h-63.512c-14.089,0-25.493,8.422-25.493,18.811
		c0,0.036,0,0.055,0,0.074C229.413,51.073,229.931,50.98,230.499,50.98L230.499,50.98z M230.499,50.98"/>
</g>
</svg>
