<svg xmlns="http://www.w3.org/2000/svg" width="1200" height="630" viewBox="0 0 1200 630">
  <defs>
    <radialGradient id="glow" cx="50%" cy="50%" r="50%">
      <stop offset="0%" style="stop-color:#3a0a0a;stop-opacity:1" />
      <stop offset="100%" style="stop-color:#0a0a0a;stop-opacity:1" />
    </radialGradient>
  </defs>

  <!-- Background -->
  <rect width="1200" height="630" fill="url(#glow)" />

  <!-- Red accent bar top -->
  <rect x="0" y="0" width="1200" height="5" fill="#e11d48" />

  <!-- Couch paths from couch-red.svg, scaled to ~500x384 and centered at 600,315 -->
  <!-- Original viewBox: 0 0 180 138 → scale factor ~2.78, centered: translate(350, 123) -->
  <g transform="translate(350, 123) scale(2.78)">
    <path fill="#AC1F23" d="M128.013,106.301c-2.918,0-5.295-1.762-5.295-3.914v-3.916h5.295c8.432,0,10.576-2.12,10.576-2.12v6.036c0,2.152-2.378,3.914-5.276,3.914H128.013z"/>
    <path fill="#AC1F23" d="M38.006,106.301c-2.922,0-5.304-1.762-5.304-3.914v-6.036c0,0,2.18,2.12,10.602,2.12h5.3v3.916c0,2.152-2.381,3.914-5.3,3.914H38.006z"/>
    <path fill="#AC1F23" d="M153.504,65.219c0-4.983-5.505-9.032-12.252-9.032c-5.252,0-9.696,2.445-11.453,5.883l-5.791,9.606c-0.439-0.191-17.992-4.278-38.022-4.278c-20.011,0-38.287,4.106-38.721,4.316l-5.508-9.033c-1.475-3.746-6.13-6.494-11.688-6.494c-6.771,0-12.256,4.049-12.256,9.051c0,4.146,3.832,7.623,9,8.672l2.277,14.4c2.375,6.092,14.214,6.24,14.214,6.24h84.709c0,0,11.817-0.148,14.218-6.26l2.277-14.381C149.651,72.86,153.504,69.384,153.504,65.219z"/>
    <path fill="#AC1F23" d="M30.068,51.489c8.014,0,15.2,3.896,17.656,9.528l2.659,4.411c5.198-1.394,23.84-2.709,35.602-2.709c11.446,0,29.829,1.222,34.918,2.597l3.028-5.042c2.764-5.271,9.69-8.785,17.32-8.785c0.568,0,1.084,0.074,1.653,0.112c0-0.02,0-0.038,0-0.074c0-10.389-11.403-18.811-25.486-18.811H53.907c-14.089,0-25.493,8.422-25.493,18.811c0,0.036,0,0.055,0,0.074C28.982,51.582,29.5,51.489,30.068,51.489z"/>
  </g>
</svg>
